<svg width="288" height="55" viewBox="0 0 288 55" fill="none" xmlns="http://www.w3.org/2000/svg">
<path d="M78.4773 17.7273H82.6591V34.0909C82.6515 35.5909 82.3333 36.8826 81.7045 37.9659C81.0758 39.0417 80.197 39.8712 79.0682 40.4545C77.947 41.0303 76.6402 41.3182 75.1477 41.3182C73.7841 41.3182 72.5568 41.0758 71.4659 40.5909C70.3826 40.0985 69.5227 39.3712 68.8864 38.4091C68.25 37.447 67.9318 36.25 67.9318 34.8182H72.125C72.1326 35.447 72.2689 35.9886 72.5341 36.4432C72.8068 36.8977 73.1818 37.2462 73.6591 37.4886C74.1364 37.7311 74.6856 37.8523 75.3068 37.8523C75.9811 37.8523 76.553 37.7121 77.0227 37.4318C77.4924 37.1439 77.8485 36.7197 78.0909 36.1591C78.3409 35.5985 78.4697 34.9091 78.4773 34.0909V17.7273ZM97.8648 41.3409C96.1602 41.3409 94.683 40.9659 93.433 40.2159C92.183 39.4659 91.2133 38.4167 90.5239 37.0682C89.842 35.7197 89.5011 34.1439 89.5011 32.3409C89.5011 30.5379 89.842 28.9583 90.5239 27.6023C91.2133 26.2462 92.183 25.1932 93.433 24.4432C94.683 23.6932 96.1602 23.3182 97.8648 23.3182C99.5693 23.3182 101.047 23.6932 102.297 24.4432C103.547 25.1932 104.513 26.2462 105.194 27.6023C105.884 28.9583 106.228 30.5379 106.228 32.3409C106.228 34.1439 105.884 35.7197 105.194 37.0682C104.513 38.4167 103.547 39.4659 102.297 40.2159C101.047 40.9659 99.5693 41.3409 97.8648 41.3409ZM97.8875 38.0455C98.8117 38.0455 99.5845 37.7917 100.206 37.2841C100.827 36.7689 101.289 36.0795 101.592 35.2159C101.903 34.3523 102.058 33.3902 102.058 32.3295C102.058 31.2614 101.903 30.2955 101.592 29.4318C101.289 28.5606 100.827 27.8674 100.206 27.3523C99.5845 26.8371 98.8117 26.5795 97.8875 26.5795C96.9405 26.5795 96.1527 26.8371 95.5239 27.3523C94.9027 27.8674 94.4367 28.5606 94.1261 29.4318C93.8231 30.2955 93.6716 31.2614 93.6716 32.3295C93.6716 33.3902 93.8231 34.3523 94.1261 35.2159C94.4367 36.0795 94.9027 36.7689 95.5239 37.2841C96.1527 37.7917 96.9405 38.0455 97.8875 38.0455ZM113.102 41V17.7273H117.215V26.4318H117.386C117.598 26.0076 117.897 25.5568 118.284 25.0795C118.67 24.5947 119.193 24.1818 119.852 23.8409C120.511 23.4924 121.352 23.3182 122.374 23.3182C123.723 23.3182 124.939 23.6629 126.022 24.3523C127.113 25.0341 127.977 26.0455 128.613 27.3864C129.257 28.7197 129.579 30.3561 129.579 32.2955C129.579 34.2121 129.265 35.8409 128.636 37.1818C128.007 38.5227 127.151 39.5455 126.068 40.25C124.984 40.9545 123.757 41.3068 122.386 41.3068C121.386 41.3068 120.556 41.1402 119.897 40.8068C119.238 40.4735 118.708 40.072 118.306 39.6023C117.912 39.125 117.605 38.6742 117.386 38.25H117.147V41H113.102ZM117.136 32.2727C117.136 33.4015 117.295 34.3902 117.613 35.2386C117.939 36.0871 118.405 36.75 119.011 37.2273C119.624 37.697 120.367 37.9318 121.238 37.9318C122.147 37.9318 122.909 37.6894 123.522 37.2045C124.136 36.7121 124.598 36.0417 124.909 35.1932C125.227 34.3371 125.386 33.3636 125.386 32.2727C125.386 31.1894 125.23 30.2273 124.92 29.3864C124.609 28.5455 124.147 27.8864 123.534 27.4091C122.92 26.9318 122.155 26.6932 121.238 26.6932C120.359 26.6932 119.613 26.9242 118.999 27.3864C118.386 27.8485 117.92 28.4962 117.602 29.3295C117.291 30.1629 117.136 31.1439 117.136 32.2727ZM146.856 29.6136V33H136.378V29.6136H146.856ZM163.746 17.7273H167.928V34.0909C167.92 35.5909 167.602 36.8826 166.973 37.9659C166.345 39.0417 165.466 39.8712 164.337 40.4545C163.216 41.0303 161.909 41.3182 160.416 41.3182C159.053 41.3182 157.826 41.0758 156.735 40.5909C155.651 40.0985 154.791 39.3712 154.155 38.4091C153.519 37.447 153.201 36.25 153.201 34.8182H157.394C157.401 35.447 157.538 35.9886 157.803 36.4432C158.076 36.8977 158.451 37.2462 158.928 37.4886C159.405 37.7311 159.954 37.8523 160.576 37.8523C161.25 37.8523 161.822 37.7121 162.291 37.4318C162.761 37.1439 163.117 36.7197 163.36 36.1591C163.61 35.5985 163.738 34.9091 163.746 34.0909V17.7273ZM183.134 41.3409C181.429 41.3409 179.952 40.9659 178.702 40.2159C177.452 39.4659 176.482 38.4167 175.793 37.0682C175.111 35.7197 174.77 34.1439 174.77 32.3409C174.77 30.5379 175.111 28.9583 175.793 27.6023C176.482 26.2462 177.452 25.1932 178.702 24.4432C179.952 23.6932 181.429 23.3182 183.134 23.3182C184.838 23.3182 186.315 23.6932 187.565 24.4432C188.815 25.1932 189.781 26.2462 190.463 27.6023C191.152 28.9583 191.497 30.5379 191.497 32.3409C191.497 34.1439 191.152 35.7197 190.463 37.0682C189.781 38.4167 188.815 39.4659 187.565 40.2159C186.315 40.9659 184.838 41.3409 183.134 41.3409ZM183.156 38.0455C184.08 38.0455 184.853 37.7917 185.474 37.2841C186.096 36.7689 186.558 36.0795 186.861 35.2159C187.171 34.3523 187.327 33.3902 187.327 32.3295C187.327 31.2614 187.171 30.2955 186.861 29.4318C186.558 28.5606 186.096 27.8674 185.474 27.3523C184.853 26.8371 184.08 26.5795 183.156 26.5795C182.209 26.5795 181.421 26.8371 180.793 27.3523C180.171 27.8674 179.705 28.5606 179.395 29.4318C179.092 30.2955 178.94 31.2614 178.94 32.3295C178.94 33.3902 179.092 34.3523 179.395 35.2159C179.705 36.0795 180.171 36.7689 180.793 37.2841C181.421 37.7917 182.209 38.0455 183.156 38.0455ZM209.314 33.6591V23.5455H213.427V41H209.439V37.8977H209.257C208.863 38.875 208.215 39.6742 207.314 40.2955C206.42 40.9167 205.317 41.2273 204.007 41.2273C202.863 41.2273 201.852 40.9735 200.973 40.4659C200.102 39.9508 199.42 39.2045 198.927 38.2273C198.435 37.2424 198.189 36.053 198.189 34.6591V23.5455H202.302V34.0227C202.302 35.1288 202.605 36.0076 203.211 36.6591C203.817 37.3106 204.613 37.6364 205.598 37.6364C206.204 37.6364 206.791 37.4886 207.359 37.1932C207.927 36.8977 208.393 36.4583 208.757 35.875C209.128 35.2841 209.314 34.5455 209.314 33.6591ZM220.857 41V23.5455H224.846V26.4545H225.028C225.346 25.447 225.891 24.6705 226.664 24.125C227.445 23.572 228.335 23.2955 229.335 23.2955C229.562 23.2955 229.816 23.3068 230.096 23.3295C230.384 23.3447 230.623 23.3712 230.812 23.4091V27.1932C230.638 27.1326 230.361 27.0795 229.982 27.0341C229.611 26.9811 229.251 26.9545 228.903 26.9545C228.153 26.9545 227.479 27.1174 226.88 27.4432C226.289 27.7614 225.823 28.2045 225.482 28.7727C225.141 29.3409 224.971 29.9962 224.971 30.7386V41H220.857ZM240.859 30.7727V41H236.745V23.5455H240.677V26.5114H240.881C241.283 25.5341 241.923 24.7576 242.802 24.1818C243.688 23.6061 244.783 23.3182 246.086 23.3182C247.29 23.3182 248.34 23.5758 249.234 24.0909C250.135 24.6061 250.832 25.3523 251.324 26.3295C251.824 27.3068 252.071 28.4924 252.063 29.8864V41H247.949V30.5227C247.949 29.3561 247.646 28.4432 247.04 27.7841C246.442 27.125 245.612 26.7955 244.552 26.7955C243.832 26.7955 243.192 26.9545 242.631 27.2727C242.078 27.5833 241.643 28.0341 241.324 28.625C241.014 29.2159 240.859 29.9318 240.859 30.7727ZM264.468 41.3523C263.362 41.3523 262.365 41.1553 261.479 40.7614C260.6 40.3598 259.903 39.7689 259.388 38.9886C258.88 38.2083 258.627 37.2462 258.627 36.1023C258.627 35.1174 258.809 34.303 259.172 33.6591C259.536 33.0152 260.032 32.5 260.661 32.1136C261.29 31.7273 261.998 31.4356 262.786 31.2386C263.581 31.0341 264.403 30.8864 265.252 30.7955C266.274 30.6894 267.104 30.5947 267.74 30.5114C268.377 30.4205 268.839 30.2841 269.127 30.1023C269.422 29.9129 269.57 29.6212 269.57 29.2273V29.1591C269.57 28.303 269.316 27.6402 268.809 27.1705C268.301 26.7008 267.57 26.4659 266.615 26.4659C265.608 26.4659 264.809 26.6856 264.218 27.125C263.634 27.5644 263.24 28.0833 263.036 28.6818L259.195 28.1364C259.498 27.0758 259.998 26.1894 260.695 25.4773C261.392 24.7576 262.244 24.2197 263.252 23.8636C264.259 23.5 265.373 23.3182 266.593 23.3182C267.434 23.3182 268.271 23.4167 269.104 23.6136C269.937 23.8106 270.699 24.1364 271.388 24.5909C272.077 25.0379 272.63 25.6477 273.047 26.4205C273.471 27.1932 273.684 28.1591 273.684 29.3182V41H269.729V38.6023H269.593C269.343 39.0871 268.99 39.5417 268.536 39.9659C268.089 40.3826 267.524 40.7197 266.843 40.9773C266.168 41.2273 265.377 41.3523 264.468 41.3523ZM265.536 38.3295C266.362 38.3295 267.077 38.1667 267.684 37.8409C268.29 37.5076 268.755 37.0682 269.081 36.5227C269.415 35.9773 269.581 35.3826 269.581 34.7386V32.6818C269.452 32.7879 269.233 32.8864 268.922 32.9773C268.619 33.0682 268.278 33.1477 267.899 33.2159C267.521 33.2841 267.146 33.3447 266.774 33.3977C266.403 33.4508 266.081 33.4962 265.809 33.5341C265.195 33.6174 264.646 33.7538 264.161 33.9432C263.676 34.1326 263.293 34.3977 263.013 34.7386C262.733 35.072 262.593 35.5038 262.593 36.0341C262.593 36.7917 262.869 37.3636 263.422 37.75C263.975 38.1364 264.68 38.3295 265.536 38.3295ZM285.134 17.7273V41H281.02V17.7273H285.134Z" fill="#21A752"/>
<rect width="53" height="55" rx="10" fill="#21A752"/>
<path d="M18.4773 14.7273H22.6591V31.0909C22.6515 32.5909 22.3333 33.8826 21.7045 34.9659C21.0758 36.0417 20.197 36.8712 19.0682 37.4545C17.947 38.0303 16.6402 38.3182 15.1477 38.3182C13.7841 38.3182 12.5568 38.0758 11.4659 37.5909C10.3826 37.0985 9.52273 36.3712 8.88636 35.4091C8.25 34.447 7.93182 33.25 7.93182 31.8182H12.125C12.1326 32.447 12.2689 32.9886 12.5341 33.4432C12.8068 33.8977 13.1818 34.2462 13.6591 34.4886C14.1364 34.7311 14.6856 34.8523 15.3068 34.8523C15.9811 34.8523 16.553 34.7121 17.0227 34.4318C17.4924 34.1439 17.8485 33.7197 18.0909 33.1591C18.3409 32.5985 18.4697 31.9091 18.4773 31.0909V14.7273ZM39.6148 14.7273H43.7966V31.0909C43.789 32.5909 43.4708 33.8826 42.842 34.9659C42.2133 36.0417 41.3345 36.8712 40.2057 37.4545C39.0845 38.0303 37.7777 38.3182 36.2852 38.3182C34.9216 38.3182 33.6943 38.0758 32.6034 37.5909C31.5201 37.0985 30.6602 36.3712 30.0239 35.4091C29.3875 34.447 29.0693 33.25 29.0693 31.8182H33.2625C33.2701 32.447 33.4064 32.9886 33.6716 33.4432C33.9443 33.8977 34.3193 34.2462 34.7966 34.4886C35.2739 34.7311 35.8231 34.8523 36.4443 34.8523C37.1186 34.8523 37.6905 34.7121 38.1602 34.4318C38.6299 34.1439 38.986 33.7197 39.2284 33.1591C39.4784 32.5985 39.6072 31.9091 39.6148 31.0909V14.7273Z" fill="white"/>
</svg>
